<?xml version="1.0" encoding="UTF-8"?>
<svg xmlns="http://www.w3.org/2000/svg" xmlns:xlink="http://www.w3.org/1999/xlink" width="12pt" height="12pt" viewBox="0 0 12 12" version="1.1">
<g id="surface1">
<path style=" stroke:none;fill-rule:nonzero;fill:rgb(0%,0%,0%);fill-opacity:1;" d="M 9.734375 2.34375 L 9.734375 1.113281 C 9.71875 0.953125 9.578125 0.832031 9.417969 0.839844 L 0.316406 0.839844 C 0.15625 0.824219 0.015625 0.9375 0 1.097656 C 0 1.101562 0 1.105469 0 1.113281 L 0 2.34375 C 0.0078125 2.417969 0.0351562 2.488281 0.0859375 2.542969 L 3.578125 6.078125 L 3.578125 10.875 C 3.582031 10.972656 3.636719 11.066406 3.722656 11.117188 C 3.761719 11.148438 3.8125 11.160156 3.863281 11.160156 L 3.992188 11.132812 L 5.996094 10.128906 C 6.09375 10.078125 6.152344 9.980469 6.15625 9.871094 L 6.15625 6.078125 L 9.648438 2.542969 C 9.695312 2.488281 9.726562 2.417969 9.734375 2.34375 Z M 5.652344 5.765625 C 5.609375 5.820312 5.585938 5.890625 5.582031 5.964844 L 5.582031 9.699219 L 4.152344 10.402344 L 4.152344 5.964844 C 4.148438 5.890625 4.117188 5.816406 4.066406 5.765625 L 0.917969 2.558594 L 8.816406 2.558594 Z M 9.160156 1.984375 L 0.574219 1.984375 L 0.574219 1.414062 L 9.160156 1.414062 Z M 9.160156 1.984375 "/>
<path style=" stroke:none;fill-rule:nonzero;fill:rgb(0%,0%,0%);fill-opacity:1;" d="M 11.28125 5.679688 C 11.269531 5.667969 11.257812 5.65625 11.25 5.648438 C 10.285156 4.699219 8.734375 4.714844 7.785156 5.679688 C 7.777344 5.6875 7.765625 5.699219 7.753906 5.710938 C 6.808594 6.675781 6.824219 8.222656 7.785156 9.171875 C 8.246094 9.640625 8.875 9.90625 9.53125 9.902344 C 10.183594 9.898438 10.808594 9.640625 11.269531 9.179688 C 12.238281 8.214844 12.242188 6.648438 11.28125 5.679688 Z M 10.878906 8.769531 C 10.144531 9.460938 9.003906 9.460938 8.269531 8.769531 C 7.503906 8.050781 7.46875 6.84375 8.1875 6.078125 C 8.929688 5.335938 10.136719 5.335938 10.878906 6.078125 C 11.605469 6.828125 11.605469 8.019531 10.878906 8.769531 Z M 10.878906 8.769531 "/>
<path style=" stroke:none;fill-rule:nonzero;fill:rgb(0%,0%,0%);fill-opacity:1;" d="M 10.636719 6.308594 C 10.535156 6.199219 10.363281 6.191406 10.25 6.292969 C 10.246094 6.296875 10.238281 6.304688 10.234375 6.308594 L 9.53125 7.023438 L 8.816406 6.308594 C 8.714844 6.199219 8.542969 6.191406 8.433594 6.292969 C 8.425781 6.296875 8.421875 6.304688 8.417969 6.308594 C 8.304688 6.425781 8.304688 6.605469 8.417969 6.722656 L 9.117188 7.425781 L 8.417969 8.125 C 8.304688 8.242188 8.304688 8.425781 8.417969 8.542969 C 8.519531 8.652344 8.691406 8.660156 8.800781 8.558594 C 8.808594 8.550781 8.8125 8.546875 8.816406 8.542969 L 9.53125 7.824219 L 10.234375 8.542969 C 10.289062 8.59375 10.359375 8.625 10.433594 8.628906 C 10.511719 8.628906 10.585938 8.597656 10.636719 8.542969 C 10.746094 8.425781 10.746094 8.242188 10.636719 8.125 L 9.933594 7.425781 L 10.636719 6.722656 C 10.746094 6.605469 10.746094 6.425781 10.636719 6.308594 Z M 10.636719 6.308594 "/>
</g>
</svg>
