<?xml version="1.0" encoding="UTF-8"?>
<svg xmlns="http://www.w3.org/2000/svg" xmlns:xlink="http://www.w3.org/1999/xlink" width="8pt" height="8pt" viewBox="0 0 8 8" version="1.1">
<g id="surface1">
<path style=" stroke:none;fill-rule:nonzero;fill:rgb(0%,0%,0%);fill-opacity:1;" d="M 7.953125 7.714844 L 5.515625 5.28125 C 6.023438 4.71875 6.332031 3.980469 6.332031 3.167969 C 6.332031 1.421875 4.914062 0 3.167969 0 C 1.421875 0 0 1.421875 0 3.167969 C 0 4.914062 1.421875 6.332031 3.167969 6.332031 C 3.980469 6.332031 4.71875 6.023438 5.28125 5.515625 L 7.714844 7.953125 C 7.75 7.984375 7.789062 8 7.832031 8 C 7.875 8 7.917969 7.984375 7.953125 7.953125 C 8.015625 7.886719 8.015625 7.78125 7.953125 7.714844 Z M 3.167969 6 C 1.605469 6 0.332031 4.730469 0.332031 3.167969 C 0.332031 1.605469 1.605469 0.332031 3.167969 0.332031 C 4.730469 0.332031 6 1.605469 6 3.167969 C 6 4.730469 4.730469 6 3.167969 6 Z M 3.167969 6 "/>
</g>
</svg>
